<svg width="15" height="12" viewBox="0 0 15 12" fill="none" xmlns="http://www.w3.org/2000/svg">
<path d="M1.19142 11.8125H2.38309V3.54375H1.19142C0.533399 3.54375 -0.000244141 4.07273 -0.000244141 4.725V10.6313C-0.000244141 11.2835 0.533399 11.8125 1.19142 11.8125ZM14.2998 10.6313V4.725C14.2998 4.07273 13.7661 3.54375 13.1081 3.54375H11.9164V11.8125H13.1081C13.7661 11.8125 14.2998 11.2835 14.2998 10.6313ZM10.7248 3.54375V1.77188C10.7248 0.793283 9.92448 0 8.93726 0H5.36226C4.37503 0 3.57476 0.793283 3.57476 1.77188V11.8125H10.7248V3.54375ZM8.93726 3.54375H5.36226V1.77188H8.93726V3.54375Z" fill="#F8D7A4"/>
</svg>
