<svg width="19" height="14" viewBox="0 0 19 14" fill="none" xmlns="http://www.w3.org/2000/svg">
<path fill-rule="evenodd" clip-rule="evenodd" d="M8.12451 14.0005C8.12451 14.0005 6.99951 14.0005 6.99951 12.8755C6.99951 11.7505 8.12451 8.37549 12.6245 8.37549C17.1245 8.37549 18.2495 11.7505 18.2495 12.8755C18.2495 14.0005 17.1245 14.0005 17.1245 14.0005H8.12451ZM12.6245 7.25049C13.5196 7.25049 14.3781 6.89491 15.011 6.26197C15.6439 5.62904 15.9995 4.7706 15.9995 3.87549C15.9995 2.98038 15.6439 2.12194 15.011 1.489C14.3781 0.856068 13.5196 0.500488 12.6245 0.500488C11.7294 0.500488 10.871 0.856068 10.238 1.489C9.60509 2.12194 9.24951 2.98038 9.24951 3.87549C9.24951 4.7706 9.60509 5.62904 10.238 6.26197C10.871 6.89491 11.7294 7.25049 12.6245 7.25049ZM6.11751 14.0005C5.95074 13.6493 5.86756 13.2642 5.87451 12.8755C5.87451 11.3511 6.63951 9.78174 8.05251 8.69049C7.34724 8.47318 6.61245 8.36691 5.87451 8.37549C1.37451 8.37549 0.249512 11.7505 0.249512 12.8755C0.249512 14.0005 1.37451 14.0005 1.37451 14.0005H6.11751ZM5.31201 7.25049C6.05793 7.25049 6.7733 6.95417 7.30075 6.42673C7.8282 5.89928 8.12451 5.18391 8.12451 4.43799C8.12451 3.69207 7.8282 2.9767 7.30075 2.44925C6.7733 1.9218 6.05793 1.62549 5.31201 1.62549C4.56609 1.62549 3.85072 1.9218 3.32327 2.44925C2.79583 2.9767 2.49951 3.69207 2.49951 4.43799C2.49951 5.18391 2.79583 5.89928 3.32327 6.42673C3.85072 6.95417 4.56609 7.25049 5.31201 7.25049Z" fill="#F8D7A4"/>
</svg>
