<svg width="94" height="14" viewBox="0 0 94 14" fill="none" xmlns="http://www.w3.org/2000/svg">
<path fill-rule="evenodd" clip-rule="evenodd" d="M7.54312 12.1677L4.36476 13.7744C3.69535 14.1128 2.86739 13.8653 2.51546 13.2216C2.37532 12.9653 2.32696 12.6717 2.37787 12.3863L2.98488 8.98318L0.413536 6.57306C-0.12803 6.06545 -0.139111 5.2318 0.388785 4.71105C0.598996 4.50368 0.874436 4.36873 1.17246 4.32709L4.72597 3.83058L6.31515 0.734296C6.64986 0.08217 7.47097 -0.185577 8.14916 0.136267C8.41922 0.264426 8.63781 0.474616 8.77109 0.734296L10.3603 3.83058L13.9138 4.32709C14.6622 4.43166 15.1808 5.09984 15.072 5.8195C15.0287 6.10607 14.8884 6.37093 14.6727 6.57306L12.1014 8.98318L12.7084 12.3863C12.8362 13.1031 12.3356 13.7838 11.5902 13.9067C11.2934 13.9557 10.988 13.9092 10.7215 13.7744L7.54312 12.1677Z" fill="#F8D7A4"/>
<path fill-rule="evenodd" clip-rule="evenodd" d="M27.2714 12.1677L24.093 13.7744C23.4236 14.1128 22.5957 13.8653 22.2437 13.2216C22.1036 12.9653 22.0552 12.6717 22.1061 12.3863L22.7132 8.98318L20.1418 6.57306C19.6002 6.06545 19.5892 5.2318 20.1171 4.71105C20.3273 4.50368 20.6027 4.36873 20.9007 4.32709L24.4542 3.83058L26.0434 0.734296C26.3781 0.08217 27.1992 -0.185577 27.8774 0.136267C28.1475 0.264426 28.3661 0.474616 28.4994 0.734296L30.0885 3.83058L33.642 4.32709C34.3905 4.43166 34.909 5.09984 34.8003 5.8195C34.757 6.10607 34.6166 6.37093 34.401 6.57306L31.8296 8.98318L32.4366 12.3863C32.5645 13.1031 32.0639 13.7838 31.3185 13.9067C31.0216 13.9557 30.7163 13.9092 30.4497 13.7744L27.2714 12.1677Z" fill="#F8D7A4"/>
<path fill-rule="evenodd" clip-rule="evenodd" d="M46.9999 12.1677L43.8216 13.7744C43.1521 14.1128 42.3242 13.8653 41.9722 13.2216C41.8321 12.9653 41.7837 12.6717 41.8347 12.3863L42.4417 8.98318L39.8703 6.57306C39.3288 6.06545 39.3177 5.2318 39.8456 4.71105C40.0558 4.50368 40.3312 4.36873 40.6293 4.32709L44.1828 3.83058L45.7719 0.734296C46.1066 0.08217 46.9278 -0.185577 47.6059 0.136267C47.876 0.264426 48.0946 0.474616 48.2279 0.734296L49.8171 3.83058L53.3706 4.32709C54.119 4.43166 54.6375 5.09984 54.5288 5.8195C54.4855 6.10607 54.3451 6.37093 54.1295 6.57306L51.5581 8.98318L52.1652 12.3863C52.293 13.1031 51.7924 13.7838 51.047 13.9067C50.7502 13.9557 50.4448 13.9092 50.1783 13.7744L46.9999 12.1677Z" fill="#F8D7A4"/>
<path fill-rule="evenodd" clip-rule="evenodd" d="M66.7284 12.1677L63.5501 13.7744C62.8807 14.1128 62.0527 13.8653 61.7008 13.2216C61.5606 12.9653 61.5123 12.6717 61.5632 12.3863L62.1702 8.98318L59.5988 6.57306C59.0573 6.06545 59.0462 5.2318 59.5741 4.71105C59.7843 4.50368 60.0597 4.36873 60.3578 4.32709L63.9113 3.83058L65.5005 0.734296C65.8352 0.08217 66.6563 -0.185577 67.3345 0.136267C67.6045 0.264426 67.8231 0.474616 67.9564 0.734296L69.5456 3.83058L73.0991 4.32709C73.8475 4.43166 74.3661 5.09984 74.2573 5.8195C74.214 6.10607 74.0737 6.37093 73.858 6.57306L71.2867 8.98318L71.8937 12.3863C72.0215 13.1031 71.5209 13.7838 70.7755 13.9067C70.4787 13.9557 70.1733 13.9092 69.9068 13.7744L66.7284 12.1677Z" fill="#F8D7A4"/>
<path d="M86.6823 11.7214L86.4567 11.6074L86.2311 11.7214L83.0528 13.3282C82.6152 13.5494 82.0855 13.38 81.8677 12.9818C81.7818 12.8246 81.7529 12.6465 81.7837 12.4741L82.3907 9.07098L82.4383 8.8039L82.2404 8.61837L79.669 6.20825C79.3342 5.8944 79.328 5.38808 79.6535 5.067L79.3024 4.71105L79.6535 5.067C79.7856 4.9367 79.9615 4.84934 80.1552 4.82228L83.7087 4.32577L83.9658 4.28984L84.0844 4.05889L85.6736 0.962607C85.8801 0.560251 86.4044 0.37731 86.8484 0.587982L87.0627 0.136267L86.8484 0.587982C87.0217 0.67025 87.158 0.803212 87.2398 0.962607L88.829 4.05889L88.9475 4.28984L89.2047 4.32577L92.7582 4.82228C93.2489 4.89085 93.5557 5.31796 93.4912 5.74479C93.465 5.91792 93.3798 6.0813 93.2443 6.20825L90.673 8.61837L90.4751 8.8039L90.5227 9.07098L91.1297 12.4741C91.2055 12.8992 90.9105 13.3329 90.4224 13.4134C90.2295 13.4452 90.0317 13.4147 89.8606 13.3282L86.6823 11.7214Z" fill="#F8D7A4" stroke="#F8D7A4"/>
</svg>
